<?xml version="1.0" encoding="UTF-8"?>
<svg version="1.1" xmlns="http://www.w3.org/2000/svg" width="1404" height="1261">
<path d="M0 0 C3.64966597 1.7603409 6.85370103 3.9372748 10.125 6.3125 C10.73190674 6.74981445 11.33881348 7.18712891 11.96411133 7.63769531 C13.28410516 8.58940771 14.60316081 9.54242238 15.92138672 10.49658203 C18.0293774 12.02124807 20.14120418 13.54046434 22.25390625 15.05859375 C30.84347487 21.2375415 39.38355949 27.48021065 47.89331055 33.76855469 C53.23769621 37.71359757 58.6087628 41.61927689 64 45.5 C74.19356463 52.84003533 84.29401627 60.30454606 94.39550781 67.77050781 C103.63804661 74.59965419 112.9038828 81.3920693 122.23071289 88.10571289 C128.4862521 92.61431413 134.69318346 97.18680605 140.89453125 101.76953125 C146.23857676 105.71415404 151.60910781 109.61969056 157 113.5 C163.99703598 118.53639542 170.94634715 123.63417532 177.87915039 128.75854492 C183.37215741 132.81378121 188.89549967 136.82453425 194.4375 140.8125 C201.35651112 145.79151007 208.20937927 150.84711721 215 156 C220.63572499 152.94700461 225.69091704 149.40686964 230.8125 145.5625 C232.50594719 144.30262801 234.19997126 143.0435311 235.89453125 141.78515625 C236.74740723 141.15109863 237.6002832 140.51704102 238.47900391 139.86376953 C242.29533179 137.04236269 246.14614569 134.26981119 250 131.5 C256.19688814 127.04027787 262.3598457 122.53750391 268.5 118 C274.64016269 113.46248989 280.80354661 108.96033424 287 104.5 C296.38780773 97.74016251 305.69696495 90.87582656 315 84 C325.0401124 76.57940327 335.09797508 69.18803961 345.23071289 61.89428711 C350.68106937 57.9660112 356.09683174 53.99287964 361.5 50 C368.3770356 44.91794922 375.29033083 39.88997203 382.23046875 34.89453125 C388.47495568 30.39370559 394.67132309 25.8296507 400.86157227 21.25463867 C407.28057141 16.51622125 413.73869378 11.83376794 420.21484375 7.17382812 C423.49852799 4.81066199 426.77841194 2.44773401 430 0 C433.65919421 1.65765906 436.82319013 3.90424474 440.0625 6.25 C440.66610352 6.68401123 441.26970703 7.11802246 441.89160156 7.56518555 C447.85759971 11.86854078 453.77216831 16.24200447 459.68774414 20.61425781 C465.10015914 24.61148278 470.53880119 28.56973725 476 32.5 C483.00219604 37.54001692 489.95613336 42.64213444 496.89453125 47.76953125 C502.23857676 51.71415404 507.60910781 55.61969056 513 59.5 C520.00215242 64.54007819 526.95613256 69.64213385 533.89453125 74.76953125 C539.23857821 78.71415511 544.60918549 82.61958115 550 86.5 C560.19356463 93.84003533 570.29401627 101.30454606 580.39550781 108.77050781 C589.63804661 115.59965419 598.9038828 122.3920693 608.23071289 129.10571289 C614.4862521 133.61431413 620.69318346 138.18680605 626.89453125 142.76953125 C632.23857676 146.71415404 637.60910781 150.61969056 643 154.5 C650.00215242 159.54007819 656.95613256 164.64213385 663.89453125 169.76953125 C669.23857676 173.71415404 674.60910781 177.61969056 680 181.5 C687.00215242 186.54007819 693.95613256 191.64213385 700.89453125 196.76953125 C706.23857676 200.71415404 711.60910781 204.61969056 717 208.5 C724.00215242 213.54007819 730.95613256 218.64213385 737.89453125 223.76953125 C743.23857821 227.71415511 748.60918549 231.61958115 754 235.5 C764.19356463 242.84003533 774.29401627 250.30454606 784.39550781 257.77050781 C793.63804661 264.59965419 802.9038828 271.3920693 812.23071289 278.10571289 C818.476852 282.60753912 824.67559683 287.17165437 830.8659668 291.74975586 C837.21647171 296.44001519 843.61138869 301.0664443 850.0390625 305.65039062 C851.08126953 306.39772461 851.08126953 306.39772461 852.14453125 307.16015625 C852.74628174 307.58949463 853.34803223 308.01883301 853.96801758 308.46118164 C854.97384888 309.22289673 854.97384888 309.22289673 856 310 C857.52554221 310.96935502 857.52554221 310.96935502 859.08190346 311.95829296 C861.0626188 313.63344908 861.89341021 314.59089464 862.55257201 317.12084258 C862.75847136 319.83223242 862.77052387 322.48717611 862.7215271 325.20613098 C862.72665365 326.24354185 862.7317802 327.28095272 862.7370621 328.34980029 C862.74695708 331.8312418 862.71392481 335.31095427 862.68115234 338.79223633 C862.67946019 341.28555256 862.68040932 343.77887179 862.68380737 346.27218628 C862.68517434 351.64275723 862.66814129 357.01278844 862.63438034 362.38321877 C862.5856002 370.14784345 862.56998993 377.9122567 862.56245239 385.67701801 C862.54932333 398.27495161 862.50940125 410.872652 862.45263672 423.47045898 C862.39755546 435.70742629 862.35508846 447.94433023 862.32958984 460.18139648 C862.3280135 460.93579275 862.32643716 461.69018901 862.32481305 462.46744577 C862.31698278 466.25206222 862.30940054 470.03667913 862.30194163 473.82129633 C862.23974974 505.21436714 862.13363213 536.60714814 862 568 C858.61267487 566.89059843 855.4028348 565.83037049 852.27734375 564.109375 C851.5905957 563.73731934 850.90384766 563.36526367 850.19628906 562.98193359 C849.45088867 562.57539551 848.70548828 562.16885742 847.9375 561.75 C828.23887148 551.25724372 808.21040079 541.88900526 787.5625 533.4375 C786.73915161 533.10006775 785.91580322 532.7626355 785.06750488 532.41497803 C782.67336668 531.43684192 780.27684356 530.46487546 777.87890625 529.49609375 C777.19012894 529.21637222 776.50135162 528.9366507 775.79170227 528.64845276 C771.13542998 526.78313937 766.43170532 525.06613932 761.70567322 523.38661194 C761.05918556 523.15632058 760.4126979 522.92602921 759.7466197 522.68875933 C758.16460467 522.12530149 756.58232879 521.56257612 755 521 C755.01051675 520.22769421 755.0210335 519.45538841 755.03186893 518.65967941 C755.2824032 499.82878064 755.43814657 480.99925239 755.48965549 462.16672897 C755.51682902 453.05898607 755.57554543 443.95352677 755.7097168 434.84667969 C755.82664474 426.90470517 755.88317057 418.96493211 755.86853737 411.02207112 C755.86286772 406.81890825 755.88649931 402.62071098 755.98260689 398.41854095 C757.06518857 381.7773963 757.06518857 381.7773963 752.32468605 366.43881035 C748.43522246 362.46457717 744.08121156 360.002985 738.98282242 357.8758297 C736.29802021 356.6899295 734.10644255 355.04141608 731.81640625 353.22265625 C731.10677734 352.69671875 730.39714844 352.17078125 729.66601562 351.62890625 C728.97185547 351.11199219 728.27769531 350.59507812 727.5625 350.0625 C721.40392581 345.5005932 715.22105744 340.97632617 709 336.5 C698.80628939 329.16017162 688.70598036 321.69545144 678.60449219 314.22949219 C669.36195339 307.40034581 660.0961172 300.6079307 650.76928711 293.89428711 C644.5137479 289.38568587 638.30681654 284.81319395 632.10546875 280.23046875 C626.76142324 276.28584596 621.39089219 272.38030944 616 268.5 C608.99784758 263.45992181 602.04386744 258.35786615 595.10546875 253.23046875 C589.76142324 249.28584596 584.39089219 245.38030944 579 241.5 C571.99784758 236.45992181 565.04386744 231.35786615 558.10546875 226.23046875 C552.76142324 222.28584596 547.39089219 218.38030944 542 214.5 C534.99784758 209.45992181 528.04386744 204.35786615 521.10546875 199.23046875 C515.76142179 195.28584489 510.39081451 191.38041885 505 187.5 C494.80643537 180.15996467 484.70598373 172.69545394 474.60449219 165.22949219 C465.15279195 158.24580017 455.68194834 151.29247602 446.13647461 144.43725586 C445.4481958 143.94233643 444.75991699 143.44741699 444.05078125 142.9375 C443.38127441 142.46183594 442.71176758 141.98617187 442.02197266 141.49609375 C440.60741278 140.44943559 439.22875112 139.35329512 437.88037109 138.22265625 C434.17625553 134.8873605 434.17625553 134.8873605 429.5390625 134.234375 C428.70117188 134.81703125 427.86328125 135.3996875 427 136 C426.38737305 136.42087891 425.77474609 136.84175781 425.14355469 137.27539062 C422.85014623 138.88743176 420.61258522 140.56138118 418.375 142.25 C416.66545006 143.52485421 414.95581219 144.79959052 413.24609375 146.07421875 C412.37452637 146.72696777 411.50295898 147.3797168 410.60498047 148.05224609 C406.56299116 151.07445703 402.50104754 154.06937089 398.4375 157.0625 C397.6522998 157.64161133 396.86709961 158.22072266 396.05810547 158.81738281 C389.99036137 163.28677606 383.88557114 167.7030862 377.76928711 172.10571289 C372.31893063 176.0339888 366.90316826 180.00712036 361.5 184 C354.63097922 189.07612792 347.72602253 194.0986444 340.79370117 199.08789062 C334.31228931 203.75912707 327.87764562 208.49239848 321.45507812 213.24414062 C316.99918572 216.53863623 312.51865501 219.79205419 308 223 C311.45506936 226.76434667 315.38091198 229.49507362 319.5625 232.375 C325.89681257 236.79189903 332.16616362 241.28331602 338.375 245.875 C339.16455078 246.45870361 339.95410156 247.04240723 340.76757812 247.64379883 C342.37488849 248.83314984 343.98182139 250.02301115 345.58837891 251.21337891 C349.5762919 254.1677773 353.56850755 257.11632685 357.5625 260.0625 C358.34866699 260.64241699 359.13483398 261.22233398 359.94482422 261.81982422 C366.01189194 266.28799413 372.11545784 270.70382688 378.23071289 275.10571289 C383.68107106 279.03399002 389.09673879 283.00724416 394.5 287 C400.83180301 291.67708488 407.18202736 296.32698984 413.5625 300.9375 C414.26375 301.44474609 414.965 301.95199219 415.6875 302.47460938 C416.71037109 303.21227539 416.71037109 303.21227539 417.75390625 303.96484375 C418.38999628 304.43716147 419.02608631 304.9094792 419.6814518 305.39610958 C421.98352759 307.05416339 421.98352759 307.05416339 424.56224632 308.36726475 C428.50335256 310.61912004 431.45474594 312.32984845 432.90582657 316.77461052 C433.23294354 320.25209613 433.23749377 323.60383863 433.13525391 327.09545898 C433.13671417 328.40345963 433.13817444 329.71146027 433.13967896 331.05909729 C433.14253821 334.63020735 433.08393084 338.1979306 433.01393938 341.76825595 C432.95124727 345.50500026 432.94553844 349.24183011 432.9336853 352.97901917 C432.90265475 360.04855886 432.82066799 367.11654445 432.72019041 374.18540102 C432.60825302 382.2359759 432.55339393 390.28662668 432.50323606 398.33778656 C432.39882617 414.8927662 432.22303947 431.44618452 432 448 C431.22033497 447.91646711 430.44066994 447.83293423 429.63737869 447.74687004 C422.18679937 446.94897719 414.73601664 446.15302074 407.28501439 445.35908782 C403.45701002 444.95113429 399.6290806 444.54250529 395.80133057 444.13217163 C375.16978697 441.92110591 354.54052872 439.8254349 333.84667969 438.27783203 C330.86632029 437.98695304 327.95081233 437.50465101 325 437 C325.01856049 436.17029694 325.03712097 435.34059387 325.0562439 434.48574829 C325.2193921 426.63011867 325.31423947 418.77717345 325.33421898 410.9198246 C325.34685019 406.88064427 325.38498644 402.8452022 325.48339844 398.80712891 C325.57758725 394.90249013 325.60217999 391.00280172 325.58046341 387.0971489 C325.58407717 385.61470762 325.61191825 384.13210336 325.66541672 382.65062332 C326.05339165 374.50919725 326.05339165 374.50919725 322.6287384 367.40799141 C319.27631631 364.4390683 315.57933706 362.15246661 311.68200302 359.97136497 C309.35611077 358.62815082 307.24191407 357.04631516 305.109375 355.41796875 C304.39007812 354.88558594 303.67078125 354.35320312 302.9296875 353.8046875 C302.21039062 353.27101563 301.49109375 352.73734375 300.75 352.1875 C294.52751149 347.58608051 288.28145793 343.0205789 282 338.5 C274.99780396 333.45998308 268.04386664 328.35786556 261.10546875 323.23046875 C255.03584191 318.75026956 248.93734635 314.31189132 242.7980957 309.92749023 C238.74690113 307.02510858 234.76123237 304.05983806 230.82421875 301.00390625 C229.96634766 300.34648438 229.10847656 299.6890625 228.22460938 299.01171875 C226.56455849 297.73632939 224.91553191 296.44642814 223.27929688 295.140625 C219.31469619 291.87266608 219.31469619 291.87266608 214.49609375 291.23046875 C213.67238281 291.81441406 212.84867188 292.39835937 212 293 C211.38825928 293.42095947 210.77651855 293.84191895 210.14624023 294.27563477 C207.85108372 295.88659971 205.61323117 297.5608937 203.375 299.25 C201.66545006 300.52485421 199.95581219 301.79959052 198.24609375 303.07421875 C197.37452637 303.72696777 196.50295898 304.3797168 195.60498047 305.05224609 C191.56299116 308.07445703 187.50104754 311.06937089 183.4375 314.0625 C182.6522998 314.64161133 181.86709961 315.22072266 181.05810547 315.81738281 C174.99036137 320.28677606 168.88557114 324.7030862 162.76928711 329.10571289 C156.51886133 333.61062869 150.31665782 338.17892393 144.12084961 342.75854492 C137.94355624 347.31895858 131.72961016 351.82646344 125.48828125 356.29882812 C124.14265012 357.2656795 122.80605369 358.24525372 121.47969055 359.2383728 C119 361 119 361 115.99015808 362.78421021 C109.60959129 366.77950053 109.60959129 366.77950053 105.90589905 373.15977478 C105.5173539 376.89580607 105.49258825 380.46834982 105.609375 384.22265625 C105.60931856 385.57743843 105.60395835 386.93222972 105.59356689 388.28697205 C105.58047388 391.82495065 105.638607 395.35817465 105.71246338 398.89526367 C105.77516365 402.51536305 105.76931924 406.13531251 105.76953125 409.75585938 C105.77990459 416.83854948 105.86565157 423.91848657 106 431 C105.02599243 431.03536362 104.05198486 431.07072723 103.04846191 431.10716248 C93.75530865 431.44465646 84.46218051 431.78283524 75.16907501 432.12164211 C70.39430414 432.29569922 65.61952547 432.46953576 60.84472656 432.64282227 C56.21512337 432.81084824 51.58554382 432.97951352 46.95597839 433.14857674 C45.21185594 433.2121651 43.46772583 433.27554365 41.72358704 433.33868217 C27.81357138 433.84245573 13.90660972 434.40986594 0 435 C-0.42186994 419.44918526 -0.73855124 403.8994182 -0.93261909 388.34423542 C-1.02515906 381.12003317 -1.1511084 373.8993997 -1.35791016 366.67749023 C-1.53823918 360.37701442 -1.65364936 354.07912269 -1.69359291 347.77613801 C-1.71693781 344.44032793 -1.78061524 341.11770957 -1.90314102 337.7831974 C-2.61759558 317.52411919 -2.61759558 317.52411919 1.76753998 311.620327 C5.98551446 307.56598639 10.71096974 304.70736161 15.91337967 302.08537102 C18.58530153 300.69555107 20.91501338 298.98025316 23.28125 297.125 C23.98765625 296.60228516 24.6940625 296.07957031 25.421875 295.54101562 C26.45054687 294.77821289 26.45054687 294.77821289 27.5 294 C34.37620991 288.91684152 41.29034445 283.88996222 48.23046875 278.89453125 C53.68083838 274.96607984 59.09674016 270.99294732 64.5 267 C70.64016298 262.46248967 76.80355888 257.9603517 83 253.5 C104.3509206 239.27288101 104.3509206 239.27288101 124 223 C123.54898926 222.67427002 123.09797852 222.34854004 122.63330078 222.01293945 C121.99376465 221.55105225 121.35422852 221.08916504 120.6953125 220.61328125 C119.97609619 220.09386963 119.25687988 219.57445801 118.51586914 219.03930664 C116.89778232 217.87064248 115.27978353 216.70185644 113.66186523 215.53295898 C109.59818606 212.59731798 105.53347686 209.66314716 101.46484375 206.734375 C89.78048431 198.31904687 78.18421594 189.78800795 66.60449219 181.22949219 C57.36702088 174.40409009 48.10621344 167.61547126 38.78466797 160.90527344 C34.01506336 157.46747551 29.26709997 154.0018488 24.53564453 150.51171875 C22.90677203 149.31024439 21.27627601 148.11096749 19.64404297 146.9140625 C16.23580218 144.4115031 12.84586059 141.90020965 9.53515625 139.26953125 C8.57480469 138.52058594 7.61445313 137.77164063 6.625 137 C5.83351563 136.360625 5.04203125 135.72125 4.2265625 135.0625 C2.04347759 133.74583829 2.04347759 133.74583829 -0.33984375 134.48046875 C-3.85494305 136.48835954 -6.99190031 138.83453776 -10.1875 141.3125 C-11.62129874 142.40638741 -13.05623659 143.49878304 -14.4921875 144.58984375 C-15.23436523 145.15429199 -15.97654297 145.71874023 -16.74121094 146.30029297 C-20.3918005 149.04731032 -24.10079567 151.71145003 -27.8125 154.375 C-34.07304686 158.87500029 -40.29995268 163.41699804 -46.5 168 C-53.37696236 173.08214883 -60.29033209 178.11002888 -67.23046875 183.10546875 C-72.68083838 187.03392016 -78.09674016 191.00705268 -83.5 195 C-89.64016269 199.53751011 -95.80354661 204.03966576 -102 208.5 C-111.38780773 215.25983749 -120.69696495 222.12417344 -130 229 C-140.0401124 236.42059673 -150.09797508 243.81196039 -160.23071289 251.10571289 C-165.68106937 255.0339888 -171.09683174 259.00712036 -176.5 263 C-183.3770356 268.08205078 -190.29033083 273.11002797 -197.23046875 278.10546875 C-202.68083838 282.03392016 -208.09674016 286.00705268 -213.5 290 C-220.3770356 295.08205078 -227.29033083 300.11002797 -234.23046875 305.10546875 C-239.68083838 309.03392016 -245.09674016 313.00705268 -250.5 317 C-257.3770356 322.08205078 -264.29033083 327.11002797 -271.23046875 332.10546875 C-276.68083905 336.03392064 -282.09670489 340.0070995 -287.5 344 C-313.6282038 363.30524089 -313.6282038 363.30524089 -316.70960712 364.86584663 C-319.70382621 366.560753 -321.65865083 367.83556701 -322.65328407 371.22852612 C-322.90390777 374.0912534 -322.93103406 376.88352768 -322.88647461 379.75708008 C-322.90263824 381.38214478 -322.90263824 381.38214478 -322.91912842 383.04003906 C-322.94651395 386.61722849 -322.9246398 390.19233503 -322.90234375 393.76953125 C-322.91172661 396.25104583 -322.92418301 398.73255055 -322.93959045 401.21403503 C-322.9718617 407.74248295 -322.96235683 414.27022951 -322.94421387 420.79870605 C-322.92930792 427.46156119 -322.96134703 434.12430694 -322.98632812 440.78710938 C-323.02951524 453.85818446 -323.02991776 466.92889831 -323 480 C-323.6706055 480.16732919 -324.34121099 480.33465837 -325.03213787 480.50705814 C-355.48230749 488.10692515 -385.78458216 495.92102133 -415.7898407 505.14894104 C-416.49462051 505.36437057 -417.19940033 505.57980011 -417.92553711 505.80175781 C-418.82253578 506.07817108 -418.82253578 506.07817108 -419.73765564 506.36016846 C-423.13807922 507.32186921 -426.57077904 508.14681873 -430 509 C-430.3272631 483.74832313 -430.57402698 458.49696471 -430.72537041 433.24359322 C-430.79751524 421.51746799 -430.89584173 409.79266148 -431.05615234 398.06738281 C-431.19583888 387.84568325 -431.28604777 377.62493871 -431.31723893 367.40231121 C-431.33546921 361.99050638 -431.3781978 356.58143321 -431.48022079 351.17050552 C-431.57556207 346.0724441 -431.60450678 340.97822657 -431.58350754 335.87935829 C-431.58734605 334.01277925 -431.61502895 332.14606621 -431.66887665 330.28026009 C-432.04525915 316.56087414 -432.04525915 316.56087414 -428.62852716 312.2827754 C-424.83333079 308.77846474 -420.52907359 306.42828749 -416 304 C-414.34758735 302.8369125 -412.71089919 301.65018641 -411.109375 300.41796875 C-410.39007813 299.88558594 -409.67078125 299.35320312 -408.9296875 298.8046875 C-408.21039063 298.27101563 -407.49109375 297.73734375 -406.75 297.1875 C-400.52751149 292.58608051 -394.28145793 288.0205789 -388 283.5 C-381.80341871 279.03984573 -375.64016025 274.53750831 -369.5 270 C-362.6229644 264.91794922 -355.70966917 259.88997203 -348.76953125 254.89453125 C-343.31916162 250.96607984 -337.90325984 246.99294732 -332.5 243 C-326.35983731 238.46248989 -320.19645339 233.96033424 -314 229.5 C-304.61219227 222.74016251 -295.30303505 215.87582656 -286 209 C-275.9598876 201.57940327 -265.90202492 194.18803961 -255.76928711 186.89428711 C-250.31893063 182.9660112 -244.90316826 178.99287964 -239.5 175 C-232.6229644 169.91794922 -225.70966917 164.88997203 -218.76953125 159.89453125 C-213.31916162 155.96607984 -207.90325984 151.99294732 -202.5 148 C-195.6229644 142.91794922 -188.70966917 137.88997203 -181.76953125 132.89453125 C-176.31916162 128.96607984 -170.90325984 124.99294732 -165.5 121 C-158.6229644 115.91794922 -151.70966917 110.88997203 -144.76953125 105.89453125 C-139.31916162 101.96607984 -133.90325984 97.99294732 -128.5 94 C-122.35983731 89.46248989 -116.19645339 84.96033424 -110 80.5 C-100.61219227 73.74016251 -91.30303505 66.87582656 -82 60 C-71.9598876 52.57940327 -61.90202492 45.18803961 -51.76928711 37.89428711 C-45.52183168 33.39151216 -39.32262105 28.82532997 -33.12963867 24.24804688 C-26.83149416 19.59862789 -20.49533348 15.00383014 -14.13671875 10.4375 C-9.37962658 7.01666968 -4.67476771 3.53249907 0 0 Z " fill="white" transform="translate(486,231)"/>
<path d="M0 0 C0 64.68 0 129.36 0 196 C72.27 196 144.54 196 219 196 C219 133.63 219 71.26 219 7 C227.93334098 7 236.47917273 7.1277104 245.31640625 7.953125 C246.45182358 8.05461853 247.58724091 8.15611206 248.75706482 8.26068115 C251.15479889 8.47632885 253.55226501 8.69497533 255.94946289 8.91650391 C259.47416796 9.24184664 262.99963627 9.55735192 266.52539062 9.87109375 C286.38385545 11.67293411 306.16762528 13.85595949 326 16 C326 110.71 326 205.42 326 303 C183.44 303 40.88 303 -106 303 C-106 204.33 -106 105.66 -106 4 C-64.61599458 1.70088859 -64.61599458 1.70088859 -51.93359375 1.3671875 C-50.49006495 1.32561139 -49.04654819 1.28361582 -47.6030426 1.24124146 C-43.95023326 1.13511105 -40.29729461 1.03458651 -36.64428711 0.93554688 C-32.87016906 0.83199767 -29.09623188 0.72219702 -25.32226562 0.61328125 C-19.85481478 0.45658752 -14.38731906 0.30176716 -8.91967773 0.15185547 C-7.84467514 0.12235809 -6.76967255 0.09286072 -5.66209412 0.06246948 C-3.77513402 0.01818952 -1.88747957 0 0 0 Z " fill="white" transform="translate(592,726)"/>
<path d="M0 0 C0 49.17 0 98.34 0 149 C47.52 149 95.04 149 144 149 C144 184.31 144 219.62 144 256 C61.17 256 -21.66 256 -107 256 C-107 180.1 -107 104.2 -107 26 C-64.96423663 14.32339906 -64.96423663 14.32339906 -50.4375 10.75 C-49.62253052 10.54787903 -48.80756104 10.34575806 -47.96789551 10.13751221 C-37.08710917 7.43923893 -26.18840819 4.82996312 -15.25 2.375 C-14.14970459 2.12717773 -13.04940918 1.87935547 -11.91577148 1.62402344 C-10.91747314 1.40520508 -9.9191748 1.18638672 -8.890625 0.9609375 C-8.03500977 0.77321777 -7.17939453 0.58549805 -6.29785156 0.39208984 C-4 0 -4 0 0 0 Z " fill="white" transform="translate(163,773)"/>
<path d="M0 0 C6.64792165 1.32958433 12.66044791 2.70103712 18.9765625 4.9140625 C20.2249012 5.34421913 20.2249012 5.34421913 21.49845886 5.7830658 C24.2103439 6.72189947 26.91795023 7.67232059 29.625 8.625 C30.55831146 8.95136444 31.49162292 9.27772888 32.45321655 9.61398315 C57.68998014 18.45629761 82.425513 28.468077 107 39 C107 98.4 107 157.8 107 219 C20.21 219 -66.58 219 -156 219 C-156 183.69 -156 148.38 -156 112 C-104.52 112 -53.04 112 0 112 C0 75.04 0 38.08 0 0 Z " fill="white" transform="translate(1241,810)"/>
</svg>
