<?xml version="1.0" encoding="UTF-8"?>
<svg xmlns="http://www.w3.org/2000/svg" xmlns:xlink="http://www.w3.org/1999/xlink" width="192px" height="192px" viewBox="0 0 192 192" version="1.1">
<g id="surface1">
<path style=" stroke:none;fill-rule:nonzero;fill:rgb(100%,100%,100%);fill-opacity:1;" d="M 66.460938 35.171875 C 66.960938 35.441406 67.398438 35.773438 67.847656 36.132812 C 67.929688 36.199219 68.011719 36.265625 68.097656 36.335938 C 68.277344 36.480469 68.457031 36.625 68.640625 36.769531 C 68.925781 37.003906 69.214844 37.234375 69.503906 37.464844 C 70.679688 38.40625 71.847656 39.355469 73.011719 40.3125 C 73.742188 40.914062 74.476562 41.507812 75.214844 42.101562 C 76.609375 43.21875 77.988281 44.355469 79.371094 45.492188 C 80.632812 46.53125 81.902344 47.566406 83.175781 48.585938 C 84.03125 49.273438 84.882812 49.96875 85.730469 50.667969 C 86.460938 51.269531 87.195312 51.863281 87.929688 52.453125 C 88.886719 53.21875 89.839844 53.996094 90.785156 54.777344 C 91.539062 55.394531 92.292969 56.003906 93.050781 56.613281 C 93.996094 57.371094 94.933594 58.140625 95.863281 58.925781 C 96.632812 58.460938 97.324219 57.921875 98.027344 57.335938 C 98.257812 57.144531 98.488281 56.953125 98.71875 56.761719 C 98.835938 56.664062 98.953125 56.566406 99.074219 56.46875 C 99.597656 56.039062 100.121094 55.617188 100.648438 55.195312 C 101.496094 54.515625 102.339844 53.828125 103.179688 53.140625 C 104.019531 52.449219 104.863281 51.761719 105.710938 51.082031 C 106.992188 50.054688 108.265625 49.007812 109.539062 47.960938 C 110.910156 46.832031 112.285156 45.707031 113.671875 44.597656 C 114.417969 43.996094 115.160156 43.394531 115.898438 42.785156 C 116.835938 42.011719 117.785156 41.246094 118.730469 40.484375 C 119.585938 39.800781 120.433594 39.105469 121.28125 38.410156 C 122.15625 37.6875 123.042969 36.972656 123.925781 36.265625 C 124.375 35.90625 124.824219 35.542969 125.265625 35.171875 C 125.765625 35.425781 126.199219 35.765625 126.640625 36.125 C 126.722656 36.191406 126.804688 36.257812 126.890625 36.324219 C 127.707031 36.980469 128.515625 37.644531 129.324219 38.3125 C 130.066406 38.917969 130.808594 39.523438 131.554688 40.121094 C 132.511719 40.886719 133.464844 41.664062 134.414062 42.445312 C 135.144531 43.046875 135.878906 43.640625 136.617188 44.230469 C 137.574219 45 138.523438 45.777344 139.472656 46.554688 C 140.203125 47.15625 140.9375 47.75 141.675781 48.34375 C 143.070312 49.460938 144.449219 50.597656 145.832031 51.734375 C 147.097656 52.773438 148.363281 53.808594 149.636719 54.828125 C 150.492188 55.515625 151.34375 56.210938 152.191406 56.910156 C 152.921875 57.511719 153.65625 58.105469 154.394531 58.695312 C 155.351562 59.464844 156.300781 60.242188 157.25 61.019531 C 157.980469 61.621094 158.714844 62.214844 159.453125 62.808594 C 160.410156 63.574219 161.363281 64.351562 162.308594 65.132812 C 163.042969 65.734375 163.777344 66.328125 164.511719 66.917969 C 165.46875 67.6875 166.421875 68.460938 167.371094 69.242188 C 168.101562 69.84375 168.835938 70.4375 169.574219 71.03125 C 170.964844 72.148438 172.347656 73.285156 173.730469 74.421875 C 174.992188 75.460938 176.261719 76.496094 177.535156 77.515625 C 178.390625 78.203125 179.238281 78.898438 180.085938 79.59375 C 180.953125 80.308594 181.828125 81.011719 182.707031 81.710938 C 182.847656 81.824219 182.847656 81.824219 182.992188 81.941406 C 183.078125 82.003906 183.160156 82.070312 183.242188 82.136719 C 183.382812 82.253906 183.382812 82.253906 183.519531 82.371094 C 183.730469 82.519531 183.730469 82.519531 183.941406 82.671875 C 184.214844 82.925781 184.328125 83.070312 184.417969 83.457031 C 184.445312 83.871094 184.445312 84.273438 184.441406 84.6875 C 184.441406 84.847656 184.441406 85.003906 184.441406 85.167969 C 184.445312 85.695312 184.441406 86.226562 184.433594 86.757812 C 184.433594 87.136719 184.433594 87.515625 184.433594 87.894531 C 184.4375 88.714844 184.433594 89.53125 184.429688 90.347656 C 184.421875 91.53125 184.417969 92.714844 184.417969 93.894531 C 184.417969 95.8125 184.410156 97.730469 184.402344 99.648438 C 184.394531 101.511719 184.390625 103.375 184.386719 105.238281 C 184.386719 105.355469 184.386719 105.46875 184.386719 105.585938 C 184.386719 106.164062 184.382812 106.738281 184.382812 107.316406 C 184.375 112.097656 184.359375 116.875 184.34375 121.65625 C 183.878906 121.488281 183.441406 121.324219 183.011719 121.0625 C 182.917969 121.007812 182.824219 120.949219 182.726562 120.890625 C 182.625 120.828125 182.523438 120.769531 182.417969 120.703125 C 179.726562 119.105469 176.984375 117.679688 174.164062 116.394531 C 174.050781 116.34375 173.9375 116.289062 173.820312 116.238281 C 173.492188 116.089844 173.167969 115.941406 172.839844 115.792969 C 172.742188 115.75 172.648438 115.707031 172.550781 115.664062 C 171.914062 115.378906 171.273438 115.117188 170.625 114.863281 C 170.539062 114.828125 170.449219 114.792969 170.359375 114.757812 C 170.140625 114.671875 169.925781 114.585938 169.710938 114.5 C 169.710938 114.382812 169.710938 114.265625 169.714844 114.144531 C 169.746094 111.277344 169.769531 108.410156 169.777344 105.542969 C 169.78125 104.15625 169.789062 102.769531 169.804688 101.382812 C 169.824219 100.171875 169.832031 98.964844 169.828125 97.753906 C 169.828125 97.113281 169.832031 96.476562 169.84375 95.835938 C 169.992188 93.300781 169.992188 93.300781 169.34375 90.964844 C 168.8125 90.359375 168.214844 89.984375 167.519531 89.664062 C 167.152344 89.480469 166.851562 89.230469 166.539062 88.953125 C 166.441406 88.875 166.34375 88.792969 166.246094 88.710938 C 166.148438 88.632812 166.054688 88.554688 165.957031 88.472656 C 165.113281 87.777344 164.269531 87.089844 163.417969 86.40625 C 162.023438 85.289062 160.644531 84.152344 159.261719 83.015625 C 158 81.976562 156.730469 80.941406 155.457031 79.921875 C 154.601562 79.234375 153.75 78.539062 152.902344 77.839844 C 152.171875 77.238281 151.4375 76.644531 150.699219 76.054688 C 149.742188 75.285156 148.792969 74.507812 147.84375 73.730469 C 147.113281 73.128906 146.378906 72.535156 145.640625 71.941406 C 144.683594 71.175781 143.734375 70.398438 142.785156 69.617188 C 142.054688 69.015625 141.320312 68.421875 140.582031 67.832031 C 139.625 67.066406 138.671875 66.289062 137.722656 65.507812 C 136.992188 64.90625 136.257812 64.3125 135.519531 63.722656 C 134.128906 62.601562 132.746094 61.464844 131.363281 60.328125 C 130.070312 59.265625 128.777344 58.207031 127.472656 57.164062 C 127.378906 57.089844 127.285156 57.011719 127.1875 56.9375 C 127.09375 56.863281 127.003906 56.789062 126.910156 56.714844 C 126.714844 56.558594 126.527344 56.390625 126.34375 56.21875 C 125.835938 55.710938 125.835938 55.710938 125.203125 55.609375 C 125.085938 55.699219 124.972656 55.789062 124.855469 55.878906 C 124.769531 55.945312 124.6875 56.007812 124.601562 56.074219 C 124.289062 56.320312 123.980469 56.574219 123.675781 56.832031 C 123.441406 57.023438 123.207031 57.21875 122.972656 57.414062 C 122.855469 57.511719 122.734375 57.613281 122.613281 57.714844 C 122.058594 58.175781 121.503906 58.628906 120.949219 59.085938 C 120.839844 59.175781 120.734375 59.261719 120.625 59.355469 C 119.792969 60.035156 118.957031 60.707031 118.121094 61.375 C 117.375 61.976562 116.636719 62.578125 115.898438 63.1875 C 114.957031 63.960938 114.015625 64.726562 113.066406 65.484375 C 112.179688 66.195312 111.300781 66.917969 110.421875 67.640625 C 109.8125 68.140625 109.199219 68.636719 108.582031 69.125 C 109.054688 69.699219 109.589844 70.113281 110.164062 70.554688 C 111.027344 71.226562 111.886719 71.910156 112.734375 72.609375 C 112.84375 72.699219 112.949219 72.785156 113.0625 72.878906 C 113.28125 73.058594 113.5 73.242188 113.722656 73.421875 C 114.265625 73.871094 114.8125 74.320312 115.359375 74.769531 C 115.464844 74.859375 115.574219 74.945312 115.683594 75.035156 C 116.515625 75.71875 117.347656 76.390625 118.183594 77.058594 C 118.929688 77.65625 119.671875 78.261719 120.410156 78.871094 C 121.277344 79.582031 122.144531 80.289062 123.015625 80.992188 C 123.113281 81.070312 123.207031 81.148438 123.308594 81.226562 C 123.449219 81.339844 123.449219 81.339844 123.589844 81.453125 C 123.675781 81.527344 123.765625 81.597656 123.855469 81.671875 C 124.167969 81.925781 124.167969 81.925781 124.519531 82.125 C 125.058594 82.46875 125.464844 82.726562 125.664062 83.402344 C 125.707031 83.933594 125.707031 84.445312 125.695312 84.976562 C 125.695312 85.175781 125.695312 85.375 125.695312 85.578125 C 125.695312 86.121094 125.6875 86.667969 125.675781 87.210938 C 125.667969 87.777344 125.667969 88.347656 125.667969 88.917969 C 125.660156 89.992188 125.652344 91.070312 125.636719 92.144531 C 125.621094 93.371094 125.613281 94.597656 125.605469 95.824219 C 125.59375 98.34375 125.570312 100.863281 125.539062 103.382812 C 125.433594 103.371094 125.324219 103.359375 125.214844 103.347656 C 124.195312 103.222656 123.175781 103.101562 122.160156 102.984375 C 121.636719 102.921875 121.113281 102.859375 120.589844 102.796875 C 117.765625 102.460938 114.945312 102.140625 112.117188 101.90625 C 111.707031 101.859375 111.308594 101.785156 110.90625 101.710938 C 110.910156 101.582031 110.910156 101.457031 110.914062 101.328125 C 110.9375 100.128906 110.949219 98.933594 110.953125 97.738281 C 110.953125 97.125 110.957031 96.507812 110.972656 95.894531 C 110.984375 95.300781 110.988281 94.707031 110.984375 94.113281 C 110.984375 93.886719 110.988281 93.660156 110.996094 93.433594 C 111.050781 92.195312 111.050781 92.195312 110.582031 91.113281 C 110.125 90.660156 109.617188 90.3125 109.085938 89.980469 C 108.765625 89.777344 108.476562 89.535156 108.1875 89.289062 C 108.085938 89.207031 107.988281 89.125 107.886719 89.042969 C 107.789062 88.960938 107.691406 88.878906 107.589844 88.796875 C 106.738281 88.09375 105.882812 87.402344 105.027344 86.710938 C 104.066406 85.945312 103.117188 85.167969 102.167969 84.386719 C 101.339844 83.703125 100.503906 83.027344 99.664062 82.363281 C 99.109375 81.917969 98.566406 81.46875 98.027344 81.003906 C 97.910156 80.902344 97.792969 80.804688 97.671875 80.699219 C 97.445312 80.503906 97.21875 80.308594 96.996094 80.109375 C 96.453125 79.613281 96.453125 79.613281 95.792969 79.515625 C 95.683594 79.605469 95.570312 79.691406 95.453125 79.785156 C 95.371094 79.847656 95.285156 79.914062 95.199219 79.980469 C 94.886719 80.222656 94.578125 80.480469 94.273438 80.734375 C 94.039062 80.929688 93.804688 81.125 93.570312 81.316406 C 93.453125 81.417969 93.332031 81.515625 93.210938 81.621094 C 92.65625 82.078125 92.101562 82.535156 91.546875 82.992188 C 91.441406 83.078125 91.332031 83.167969 91.222656 83.257812 C 90.390625 83.9375 89.558594 84.613281 88.71875 85.28125 C 87.867188 85.96875 87.019531 86.664062 86.171875 87.359375 C 85.324219 88.054688 84.476562 88.742188 83.621094 89.421875 C 83.4375 89.570312 83.253906 89.71875 83.074219 89.871094 C 82.734375 90.136719 82.734375 90.136719 82.324219 90.410156 C 81.449219 91.019531 81.449219 91.019531 80.945312 91.988281 C 80.890625 92.558594 80.886719 93.101562 80.902344 93.675781 C 80.902344 93.878906 80.902344 94.085938 80.902344 94.292969 C 80.898438 94.832031 80.90625 95.371094 80.917969 95.90625 C 80.925781 96.460938 80.925781 97.011719 80.925781 97.5625 C 80.925781 98.640625 80.9375 99.71875 80.957031 100.796875 C 80.824219 100.800781 80.691406 100.808594 80.554688 100.8125 C 79.28125 100.863281 78.011719 100.914062 76.742188 100.96875 C 76.089844 100.992188 75.433594 101.019531 74.78125 101.046875 C 74.148438 101.070312 73.515625 101.097656 72.882812 101.125 C 72.644531 101.132812 72.40625 101.144531 72.167969 101.152344 C 70.265625 101.230469 68.363281 101.316406 66.460938 101.40625 C 66.402344 99.039062 66.359375 96.667969 66.335938 94.300781 C 66.320312 93.203125 66.304688 92.101562 66.277344 91.003906 C 66.25 90.042969 66.234375 89.085938 66.230469 88.125 C 66.226562 87.617188 66.21875 87.109375 66.203125 86.601562 C 66.105469 83.519531 66.105469 83.519531 66.703125 82.621094 C 67.28125 82.003906 67.925781 81.566406 68.636719 81.167969 C 69.003906 80.957031 69.320312 80.695312 69.644531 80.414062 C 69.742188 80.332031 69.839844 80.253906 69.9375 80.171875 C 70.078125 80.054688 70.078125 80.054688 70.222656 79.9375 C 71.164062 79.164062 72.109375 78.398438 73.058594 77.636719 C 73.800781 77.039062 74.542969 76.433594 75.28125 75.824219 C 76.121094 75.132812 76.964844 74.449219 77.8125 73.769531 C 80.730469 71.605469 80.730469 71.605469 83.417969 69.125 C 83.355469 69.078125 83.296875 69.027344 83.230469 68.976562 C 83.144531 68.90625 83.058594 68.835938 82.96875 68.761719 C 82.867188 68.683594 82.769531 68.605469 82.667969 68.523438 C 82.449219 68.34375 82.226562 68.167969 82.003906 67.988281 C 81.449219 67.542969 80.894531 67.09375 80.335938 66.648438 C 78.738281 65.367188 77.152344 64.070312 75.570312 62.765625 C 74.304688 61.726562 73.039062 60.691406 71.765625 59.671875 C 71.113281 59.148438 70.464844 58.621094 69.816406 58.089844 C 69.59375 57.90625 69.371094 57.722656 69.148438 57.542969 C 68.683594 57.160156 68.21875 56.777344 67.765625 56.378906 C 67.632812 56.261719 67.503906 56.148438 67.367188 56.03125 C 67.257812 55.933594 67.152344 55.835938 67.039062 55.738281 C 66.742188 55.535156 66.742188 55.535156 66.414062 55.648438 C 65.933594 55.953125 65.503906 56.3125 65.070312 56.6875 C 64.871094 56.855469 64.675781 57.019531 64.480469 57.1875 C 64.378906 57.273438 64.277344 57.359375 64.171875 57.449219 C 63.671875 57.867188 63.164062 58.273438 62.65625 58.675781 C 61.800781 59.363281 60.949219 60.054688 60.101562 60.75 C 59.164062 61.527344 58.214844 62.292969 57.269531 63.050781 C 56.523438 63.648438 55.78125 64.253906 55.042969 64.863281 C 54.203125 65.554688 53.359375 66.238281 52.511719 66.917969 C 51.230469 67.949219 49.957031 68.992188 48.683594 70.039062 C 47.3125 71.167969 45.933594 72.292969 44.550781 73.40625 C 43.804688 74.003906 43.0625 74.609375 42.324219 75.214844 C 41.382812 75.992188 40.4375 76.753906 39.488281 77.515625 C 38.746094 78.113281 38.003906 78.71875 37.265625 79.328125 C 36.324219 80.101562 35.378906 80.867188 34.429688 81.628906 C 33.683594 82.226562 32.945312 82.832031 32.207031 83.4375 C 31.265625 84.210938 30.320312 84.976562 29.371094 85.738281 C 28.625 86.335938 27.882812 86.941406 27.144531 87.550781 C 23.570312 90.488281 23.570312 90.488281 23.152344 90.726562 C 22.742188 90.984375 22.472656 91.179688 22.339844 91.695312 C 22.304688 92.132812 22.300781 92.554688 22.304688 92.992188 C 22.304688 93.242188 22.304688 93.242188 22.300781 93.492188 C 22.296875 94.039062 22.300781 94.582031 22.304688 95.128906 C 22.300781 95.503906 22.300781 95.882812 22.300781 96.261719 C 22.292969 97.253906 22.296875 98.25 22.296875 99.242188 C 22.300781 100.257812 22.296875 101.273438 22.292969 102.285156 C 22.285156 104.277344 22.285156 106.265625 22.289062 108.257812 C 22.199219 108.28125 22.105469 108.308594 22.011719 108.335938 C 17.847656 109.492188 13.703125 110.679688 9.601562 112.085938 C 9.503906 112.117188 9.410156 112.152344 9.308594 112.183594 C 9.1875 112.226562 9.1875 112.226562 9.0625 112.269531 C 8.597656 112.417969 8.128906 112.542969 7.65625 112.671875 C 7.613281 108.828125 7.578125 104.984375 7.558594 101.136719 C 7.550781 99.351562 7.535156 97.566406 7.515625 95.78125 C 7.496094 94.226562 7.480469 92.667969 7.476562 91.113281 C 7.476562 90.289062 7.46875 89.464844 7.457031 88.640625 C 7.441406 87.863281 7.4375 87.089844 7.441406 86.3125 C 7.441406 86.027344 7.4375 85.746094 7.429688 85.460938 C 7.378906 83.371094 7.378906 83.371094 7.84375 82.71875 C 8.363281 82.1875 8.953125 81.828125 9.574219 81.460938 C 9.796875 81.28125 10.023438 81.101562 10.242188 80.914062 C 10.339844 80.832031 10.4375 80.75 10.539062 80.667969 C 10.636719 80.585938 10.734375 80.503906 10.835938 80.421875 C 11.6875 79.722656 12.542969 79.027344 13.402344 78.335938 C 14.25 77.660156 15.09375 76.972656 15.929688 76.28125 C 16.871094 75.507812 17.816406 74.742188 18.765625 73.980469 C 19.511719 73.382812 20.253906 72.777344 20.992188 72.171875 C 21.832031 71.480469 22.675781 70.792969 23.519531 70.117188 C 24.804688 69.085938 26.078125 68.042969 27.351562 66.996094 C 28.722656 65.863281 30.097656 64.738281 31.484375 63.628906 C 32.230469 63.03125 32.96875 62.425781 33.710938 61.816406 C 34.648438 61.042969 35.59375 60.277344 36.542969 59.519531 C 37.289062 58.917969 38.03125 58.316406 38.769531 57.707031 C 39.710938 56.933594 40.65625 56.167969 41.605469 55.40625 C 42.347656 54.808594 43.089844 54.203125 43.828125 53.59375 C 44.769531 52.820312 45.714844 52.054688 46.664062 51.296875 C 47.410156 50.699219 48.148438 50.09375 48.890625 49.484375 C 49.730469 48.792969 50.570312 48.109375 51.417969 47.429688 C 52.703125 46.398438 53.976562 45.355469 55.246094 44.308594 C 56.621094 43.179688 57.996094 42.050781 59.382812 40.941406 C 60.238281 40.257812 61.085938 39.5625 61.929688 38.863281 C 62.792969 38.15625 63.660156 37.457031 64.527344 36.761719 C 65.179688 36.242188 65.820312 35.710938 66.460938 35.171875 Z M 66.460938 35.171875 "/>
<path style=" stroke:none;fill-rule:nonzero;fill:rgb(100%,100%,100%);fill-opacity:1;" d="M 80.957031 110.539062 C 80.957031 120.390625 80.957031 130.238281 80.957031 140.382812 C 90.839844 140.382812 100.722656 140.382812 110.90625 140.382812 C 110.90625 130.886719 110.90625 121.390625 110.90625 111.605469 C 112.128906 111.605469 113.296875 111.625 114.503906 111.75 C 114.660156 111.765625 114.816406 111.78125 114.976562 111.796875 C 115.304688 111.832031 115.632812 111.863281 115.957031 111.898438 C 116.441406 111.949219 116.921875 111.996094 117.40625 112.042969 C 120.121094 112.316406 122.828125 112.652344 125.539062 112.976562 C 125.539062 127.398438 125.539062 141.816406 125.539062 156.675781 C 106.042969 156.675781 86.546875 156.675781 66.460938 156.675781 C 66.460938 141.652344 66.460938 126.628906 66.460938 111.148438 C 72.121094 110.800781 72.121094 110.800781 73.855469 110.75 C 74.050781 110.742188 74.25 110.734375 74.449219 110.730469 C 74.945312 110.714844 75.445312 110.699219 75.945312 110.683594 C 76.460938 110.667969 76.976562 110.652344 77.496094 110.632812 C 78.242188 110.609375 78.988281 110.585938 79.738281 110.5625 C 79.882812 110.558594 80.03125 110.554688 80.183594 110.550781 C 80.441406 110.542969 80.699219 110.539062 80.957031 110.539062 Z M 80.957031 110.539062 "/>
<path style=" stroke:none;fill-rule:nonzero;fill:rgb(100%,100%,100%);fill-opacity:1;" d="M 22.289062 117.695312 C 22.289062 125.183594 22.289062 132.671875 22.289062 140.382812 C 28.789062 140.382812 35.289062 140.382812 41.984375 140.382812 C 41.984375 145.761719 41.984375 151.136719 41.984375 156.675781 C 30.65625 156.675781 19.328125 156.675781 7.65625 156.675781 C 7.65625 145.117188 7.65625 133.5625 7.65625 121.65625 C 13.40625 119.878906 13.40625 119.878906 15.394531 119.332031 C 15.503906 119.304688 15.617188 119.273438 15.730469 119.242188 C 17.21875 118.828125 18.710938 118.433594 20.207031 118.058594 C 20.355469 118.019531 20.507812 117.984375 20.660156 117.945312 C 20.796875 117.910156 20.933594 117.878906 21.074219 117.84375 C 21.191406 117.816406 21.308594 117.785156 21.429688 117.757812 C 21.742188 117.695312 21.742188 117.695312 22.289062 117.695312 Z M 22.289062 117.695312 "/>
<path style=" stroke:none;fill-rule:nonzero;fill:rgb(100%,100%,100%);fill-opacity:1;" d="M 169.710938 123.332031 C 170.617188 123.53125 171.441406 123.742188 172.304688 124.078125 C 172.476562 124.144531 172.476562 124.144531 172.648438 124.210938 C 173.019531 124.355469 173.390625 124.5 173.761719 124.644531 C 173.886719 124.695312 174.015625 124.742188 174.148438 124.792969 C 177.597656 126.140625 180.980469 127.664062 184.34375 129.269531 C 184.34375 138.3125 184.34375 147.355469 184.34375 156.675781 C 172.472656 156.675781 160.605469 156.675781 148.375 156.675781 C 148.375 151.300781 148.375 145.921875 148.375 140.382812 C 155.417969 140.382812 162.457031 140.382812 169.710938 140.382812 C 169.710938 134.757812 169.710938 129.128906 169.710938 123.332031 Z M 169.710938 123.332031 "/>
</g>
</svg>
